<?xml version="1.0" encoding="utf-8"?>
<!-- Generator: Adobe Illustrator 26.2.1, SVG Export Plug-In . SVG Version: 6.00 Build 0)  -->
<svg version="1.1" id="Layer_1" xmlns="http://www.w3.org/2000/svg" xmlns:xlink="http://www.w3.org/1999/xlink" x="0px" y="0px"
	 viewBox="0 0 75 40" style="enable-background:new 0 0 75 40;" xml:space="preserve">
<style type="text/css">
	.st0{fill:#1E417C;}
	.st1{fill:#2AACE2;}
	.st2{enable-background:new    ;}
	.st3{fill:#003E7E;}
</style>
<g id="FT_Bug_-_DBlue">
	<g>
		<path class="st0" d="M29.9,16.6c0,0.1-0.1,0.2-0.2,0.3c0,0,0,0,0,0h-2.3c0,0-0.1,0-0.1,0.1c0,0,0,0,0,0v7.4c0,0.1,0,0.1-0.1,0.2
			c0,0-0.1,0.1-0.2,0.1h-1.8c-0.1,0-0.1,0-0.2-0.1c0,0-0.1-0.1-0.1-0.2V17c0,0,0-0.1-0.1-0.1c0,0,0,0,0,0l-5.8,0c0,0-0.1,0-0.1,0.1
			c0,0,0,0,0,0v1.7c0,0,0,0.1,0.1,0.1c0,0,0,0,0,0h2.7c0.1,0,0.2,0.1,0.3,0.2c0,0,0,0,0,0v1.5c0,0.1-0.1,0.2-0.2,0.3c0,0,0,0,0,0
			h-2.7c0,0-0.1,0-0.1,0.1c0,0,0,0,0,0v3.6c0,0.1-0.1,0.2-0.2,0.3c0,0,0,0,0,0h-1.8c-0.1,0-0.1,0-0.2-0.1c0,0-0.1-0.1-0.1-0.2v-9.3
			c0-0.1,0-0.1,0.1-0.2c0,0,0.1-0.1,0.2-0.1h12.9c0.1,0,0.2,0.1,0.3,0.2c0,0,0,0,0,0L29.9,16.6z M33,14.1l-5-5
			c-0.5-0.5-1.3-0.8-2-0.8h-6.9c-0.7,0-1.5,0.3-2,0.8l-5,5c-0.4,0.4-0.7,1-0.7,1.6v7.1c0,0.8,0.3,1.5,0.8,2l4.8,4.8
			c0.5,0.5,1.2,0.8,2,0.8h3.6l0,4c0,0.1,0.1,0.2,0.2,0.2c0,0,0.1,0,0.1-0.1l10-10c0.4-0.4,0.7-1,0.7-1.6v-7.3
			C33.7,15.1,33.4,14.5,33,14.1"/>
	</g>
	<g>
		<path class="st1" d="M11,25.1c-0.6-0.6-0.9-1.4-0.9-2.2v-7.6c0-0.7,0.3-1.3,0.7-1.7l5.4-5.4h-0.5c-0.8,0-1.5,0.3-2,0.8l-5.1,5
			c-0.4,0.4-0.7,1-0.7,1.6v7.1c0,0.8,0.3,1.5,0.8,2l4.9,4.9c0.5,0.5,1.3,0.8,2,0.8h0.9c-0.1-0.1-0.2-0.2-0.3-0.3L11,25.1z"/>
	</g>
</g>
<g id="Optix">
	<g id="Optix_Dark_Blue" class="st2">
		<path class="st3" d="M36.5,21.3v-3c0-2.1,1.5-3.5,3.7-3.5c2.2,0,3.7,1.4,3.7,3.5v3c0,2.1-1.5,3.5-3.7,3.5
			C38,24.8,36.5,23.4,36.5,21.3z M41.9,21.4v-3.1c0-1.1-0.7-1.8-1.7-1.8c-1,0-1.7,0.7-1.7,1.8v3.1c0,1.1,0.7,1.8,1.7,1.8
			C41.2,23.2,41.9,22.4,41.9,21.4z"/>
		<path class="st3" d="M51.2,21.1c0,0.6-0.1,1.2-0.3,1.7c-0.4,1.1-1.3,1.9-2.7,1.9c-0.7,0-1.2-0.3-1.6-0.7c0-0.1-0.1,0-0.1,0v3
			c0,0.1-0.1,0.2-0.2,0.2h-1.6c-0.1,0-0.2-0.1-0.2-0.2v-9.4c0-0.1,0.1-0.2,0.2-0.2h1.6c0.1,0,0.2,0.1,0.2,0.2v0.5c0,0.1,0,0.1,0.1,0
			c0.4-0.5,0.9-0.8,1.6-0.8c1.3,0,2.3,0.8,2.7,2C51.1,20,51.2,20.5,51.2,21.1z M49.1,21.1c0-0.6-0.1-1-0.3-1.4
			c-0.2-0.4-0.6-0.6-1-0.6c-0.4,0-0.8,0.2-1,0.6c-0.2,0.3-0.3,0.8-0.3,1.4c0,0.6,0.1,1.1,0.3,1.4c0.2,0.4,0.5,0.6,0.9,0.6
			c0.4,0,0.8-0.2,1-0.5S49.1,21.7,49.1,21.1z"/>
		<path class="st3" d="M55.7,19.1h-1.3c0,0-0.1,0-0.1,0.1v3c0,0.6,0.2,0.9,0.8,0.9h0.5c0.1,0,0.2,0.1,0.2,0.2v1.3
			c0,0.1-0.1,0.2-0.2,0.2c-0.3,0-0.6,0-0.8,0c-1.4,0-2.3-0.3-2.3-1.8v-3.7c0,0,0-0.1-0.1-0.1h-0.8c-0.1,0-0.2-0.1-0.2-0.2v-1.2
			c0-0.1,0.1-0.2,0.2-0.2h0.8c0,0,0.1,0,0.1-0.1v-1.7c0-0.1,0.1-0.2,0.2-0.2h1.6c0.1,0,0.2,0.1,0.2,0.2v1.7c0,0,0,0.1,0.1,0.1h1.3
			c0.1,0,0.2,0.1,0.2,0.2v1.2C55.8,19,55.8,19.1,55.7,19.1z"/>
		<path class="st3" d="M56.3,15.6c0-0.7,0.5-1.1,1.1-1.1s1.1,0.4,1.1,1.1c0,0.6-0.5,1.1-1.1,1.1C56.8,16.7,56.3,16.3,56.3,15.6z
			 M56.4,24.5v-6.8c0-0.1,0.1-0.2,0.2-0.2h1.6c0.1,0,0.2,0.1,0.2,0.2v6.8c0,0.1-0.1,0.2-0.2,0.2h-1.6C56.5,24.7,56.4,24.6,56.4,24.5
			z"/>
		<path class="st3" d="M58.8,24.5l2.2-3.3c0,0,0-0.1,0-0.1l-2.2-3.3c-0.1-0.1,0-0.2,0.1-0.2h1.7c0.1,0,0.2,0,0.2,0.1l1.3,1.9
			c0,0,0.1,0.1,0.1,0l1.3-1.9c0-0.1,0.1-0.1,0.2-0.1h1.9c0.1,0,0.2,0.1,0.1,0.2l-2.2,3.3c0,0,0,0.1,0,0.1l2.2,3.3
			c0.1,0.1,0,0.2-0.1,0.2h-1.8c-0.1,0-0.2,0-0.2-0.1l-1.3-1.9c0-0.1-0.1-0.1-0.1,0L61,24.6c0,0.1-0.1,0.1-0.2,0.1h-1.9
			C58.8,24.7,58.7,24.6,58.8,24.5z"/>
	</g>
</g>
</svg>
