<?xml version="1.0" encoding="utf-8"?>
<!-- Generator: Adobe Illustrator 24.3.0, SVG Export Plug-In . SVG Version: 6.00 Build 0)  -->
<svg version="1.1" id="Livello_1" xmlns="http://www.w3.org/2000/svg" xmlns:xlink="http://www.w3.org/1999/xlink" x="0px" y="0px"
	 viewBox="0 0 534.6 130.4" style="enable-background:new 0 0 534.6 130.4;" xml:space="preserve">
<style type="text/css">
	.st0{clip-path:url(#SVGID_2_);fill:#FFFFFF;}
	.st1{clip-path:url(#SVGID_4_);fill:#41535D;}
	.st2{clip-path:url(#SVGID_6_);fill:#41535D;}
	.st3{clip-path:url(#SVGID_8_);fill:#41535D;}
	.st4{clip-path:url(#SVGID_10_);fill:#0099D8;}
	.st5{clip-path:url(#SVGID_12_);fill:#0099D8;}
	.st6{clip-path:url(#SVGID_14_);fill:#0099D8;}
	.st7{clip-path:url(#SVGID_16_);fill:#0099D8;}
	.st8{clip-path:url(#SVGID_18_);fill:#6D6E71;}
	.st9{clip-path:url(#SVGID_20_);fill:#6D6E71;}
	.st10{clip-path:url(#SVGID_22_);fill:#6D6E71;}
	.st11{clip-path:url(#SVGID_24_);fill:#6D6E71;}
	.st12{clip-path:url(#SVGID_26_);fill:#6D6E71;}
	.st13{clip-path:url(#SVGID_28_);fill:#6D6E71;}
	.st14{clip-path:url(#SVGID_30_);fill:#6D6E71;}
	.st15{clip-path:url(#SVGID_32_);fill:#6D6E71;}
	.st16{clip-path:url(#SVGID_34_);fill:#6D6E71;}
	.st17{clip-path:url(#SVGID_36_);fill:#6D6E71;}
	.st18{clip-path:url(#SVGID_38_);fill:#6D6E71;}
	.st19{clip-path:url(#SVGID_40_);fill:#6D6E71;}
	.st20{clip-path:url(#SVGID_42_);fill:#6D6E71;}
	.st21{clip-path:url(#SVGID_44_);fill:#6D6E71;}
	.st22{clip-path:url(#SVGID_46_);fill:#6D6E71;}
	.st23{clip-path:url(#SVGID_48_);fill:#6D6E71;}
	.st24{clip-path:url(#SVGID_50_);fill:#6D6E71;}
	.st25{clip-path:url(#SVGID_52_);fill:#6D6E71;}
	.st26{clip-path:url(#SVGID_54_);fill:#6D6E71;}
	.st27{clip-path:url(#SVGID_56_);fill:#6D6E71;}
	.st28{clip-path:url(#SVGID_58_);fill:#6D6E71;}
	.st29{clip-path:url(#SVGID_60_);fill:#6D6E71;}
	.st30{clip-path:url(#SVGID_62_);fill:#6D6E71;}
	.st31{clip-path:url(#SVGID_64_);fill:#6D6E71;}
	.st32{clip-path:url(#SVGID_66_);fill:#6D6E71;}
	.st33{clip-path:url(#SVGID_68_);fill:#6D6E71;}
</style>
<g>
	<g>
		<defs>
			<rect id="SVGID_1_" x="-198.9" y="-234" width="841.9" height="595.3"/>
		</defs>
		<clipPath id="SVGID_2_">
			<use xlink:href="#SVGID_1_"  style="overflow:visible;"/>
		</clipPath>
		<path class="st0" d="M84.3,48.1C84.3,26.9,67.1,9.8,46,9.8C24.8,9.8,7.7,27,7.7,48.1c0,21.2,17.2,38.3,38.3,38.3
			C67.1,86.4,84.3,69.3,84.3,48.1"/>
	</g>
	<g>
		<defs>
			<rect id="SVGID_3_" x="-198.9" y="-234" width="841.9" height="595.3"/>
		</defs>
		<clipPath id="SVGID_4_">
			<use xlink:href="#SVGID_3_"  style="overflow:visible;"/>
		</clipPath>
		<path class="st1" d="M57,64.2c6.2,3.3,13.2,0.7,14.2,0.4c2-0.6,4.3-1.9,4.3-1.9v5.9c0,0-2.3,4.1-15.2,3.7
			c-8.6-0.3-13.9-7.2-13.9-7.2s-0.2,0.3-1.6,1.5c-1.2,1-4.9,4.5-8.5,5.2c-4.5,0.9-18.2,2.4-20.1-10.8c-0.1-1-0.4-4.5,0.7-6.9
			c1.2-2.4,4.5-8.9,19.4-9.7c2.2-0.1,6.2-0.2,6.2-0.2s0.7-3.2,0-6.1c-0.7-2.8-3.4-7.3-8.3-7.3C28,30.7,21,34,21,34v-5.9
			c0,0,6.5-4.1,13.9-3.9c10.7,0.2,12.3,7.1,12.4,7c2.9-3.2,7.4-5.3,10-5.9C67.9,23,75.1,29,75.9,34c0.6,3.8,0.2,13.5-9.8,16.1
			c-6.1,1.6-14.9,0.7-14.9,0.7S49,60,57,64.2 M426,27.9c-9.4,0-17.3,6.9-18.9,17.2H91.8C90.1,20.3,69.4,1.8,45.6,1.8
			C20.6,1.8,0.3,22.1,0.3,47c0,25,20.3,45.3,45.3,45.3c23.9,0,44.5-18.5,46.3-41.9h315.4c1.6,9,9.5,15.8,18.9,15.8
			c10.6,0,19.1-8.6,19.1-19.1C445.2,36.5,436.6,27.9,426,27.9"/>
	</g>
	<g>
		<defs>
			<rect id="SVGID_5_" x="-198.9" y="-234" width="841.9" height="595.3"/>
		</defs>
		<clipPath id="SVGID_6_">
			<use xlink:href="#SVGID_5_"  style="overflow:visible;"/>
		</clipPath>
		<path class="st2" d="M67,41.3c0.9-0.8,4.3-6.7-1.3-9.2c-2.1-0.9-7.1-1.5-11,1.6c-1.4,1.2-4.2,5.1-4.3,10.3c0,0,4,0.1,8.3,0.1
			C62.4,44.1,65.2,42.9,67,41.3"/>
	</g>
	<g>
		<defs>
			<rect id="SVGID_7_" x="-198.9" y="-234" width="841.9" height="595.3"/>
		</defs>
		<clipPath id="SVGID_8_">
			<use xlink:href="#SVGID_7_"  style="overflow:visible;"/>
		</clipPath>
		<path class="st3" d="M33.1,51.2c-4.5,0.7-6.7,2.3-8.1,4.1c-1.5,1.9-1.9,7.8,2.1,9.4c2.1,0.9,7.1,1.5,11-1.6c1.5-1.2,5-3.3,4.2-12
			C42.2,50.7,38.1,50.5,33.1,51.2"/>
	</g>
	<g>
		<defs>
			<rect id="SVGID_9_" x="-198.9" y="-234" width="841.9" height="595.3"/>
		</defs>
		<clipPath id="SVGID_10_">
			<use xlink:href="#SVGID_9_"  style="overflow:visible;"/>
		</clipPath>
		<path class="st4" d="M346.1,6.3c-1.5-2.1-3.4-6.1-7.3-6.3H313c-6.7-0.2-8.3,5.3-9.2,9.9c-0.7,3.5-9.9,78.2-9.9,78.2
			c-0.1,0.9,0.5,1.5,1.4,1.5h21.5c0.9,0,1.6-0.7,1.8-1.5c0,0,5.2-41.8,5.2-43s2.1-21,2.6-23.4c0.3-1.7,0.9-2.8,4.3-2.8h4.1
			c1.3,0.1,1.3,1.1,1.3,2.1v49.8c0,0.9,0.9,1.6,1.8,1.6h18.2c0.9,0,1.8-0.7,1.8-1.6V20.9c0-0.9-0.1-1.9,1.3-2.1h4.1
			c3.4-0.1,3.9,1.1,4.3,2.8c0.5,2.4,2.6,22.1,2.6,23.4c0,1.3,5.1,43,5.1,43c0.1,0.9,0.9,1.5,1.8,1.5h21.5c0.9,0,1.5-0.7,1.4-1.5
			c0,0-9.2-74.6-9.9-78.2c-0.9-4.7-2.6-10.1-9.2-9.9h-25.8c-3.5,0.2-4.8,2.6-7.3,6.3C347.1,6.9,346.7,7.2,346.1,6.3"/>
	</g>
	<g>
		<defs>
			<rect id="SVGID_11_" x="-198.9" y="-234" width="841.9" height="595.3"/>
		</defs>
		<clipPath id="SVGID_12_">
			<use xlink:href="#SVGID_11_"  style="overflow:visible;"/>
		</clipPath>
		<path class="st5" d="M289.8,0c0.9,0,1.6,0.4,1.6,1.3V17c0,0.9-0.7,1.6-1.6,1.6h-25.2c-0.9,0-1.6,0.7-1.6,1.6v9.9
			c0,0.9,0.7,1.6,1.6,1.6h25.2c0.9,0,1.6,0.7,1.6,1.6v16.1c0,0.9-0.7,1.6-1.6,1.6h-25.2c-0.9,0-1.6,0.7-1.6,1.6v17.3
			c0,0.9,0.7,1.6,1.6,1.6h25.2c0.9,0,1.6,0.7,1.6,1.6v15.3c0,0.9-0.7,1.6-1.6,1.6c0,0-36.7,0.2-44.2,0c-5.4-0.2-7-4.5-6.7-9
			c0.2-2.2-0.2-67.3,0-75.4c0.1-1.8,1.6-4.9,7.6-5.3h43.3"/>
	</g>
	<g>
		<defs>
			<rect id="SVGID_13_" x="-198.9" y="-234" width="841.9" height="595.3"/>
		</defs>
		<clipPath id="SVGID_14_">
			<use xlink:href="#SVGID_13_"  style="overflow:visible;"/>
		</clipPath>
		<path class="st6" d="M229.5,0c0.9,0,1.6,0.9,1.6,1.7v14.9c0,0.9-0.7,1.8-1.6,1.8h-24.3c-1.7,0-3.2,0.8-4.1,3.3
			c-0.7,2-1.7,4.3-1.9,6.6c-0.1,1.6,0.3,2.6,3.6,2.8c11.2,0.6,15.5-0.6,22.8,0.7c6.3,1.1,12.5,7.5,10.3,16.7
			c-1.4,5.9-8.1,26.3-9.8,31.4c-2.1,6.3-7.9,9.9-12.8,9.7c-3.6-0.1-38.7,0-38.7,0c-0.8,0-1.6-0.7-1.6-1.6V72c0-0.9,0.7-1.6,1.6-1.6
			h19.3c8.5-0.3,10.4-0.3,12.7-6.3c1.9-4.8,2.9-9.2,2.9-9.2c0.8-3.3-0.7-4.4-1.6-4.4c0,0-12.7,0.1-21.5-0.3
			c-5.8-0.3-11.1-5.1-12.4-8.6c-0.9-2.5-0.5-5.4-0.3-8.2c0.3-2.9,6.5-23.4,8.2-26.6c1.9-3.5,5.5-6.4,12.1-6.8
			C199.3-0.2,229.5,0,229.5,0"/>
	</g>
	<g>
		<defs>
			<rect id="SVGID_15_" x="-198.9" y="-234" width="841.9" height="595.3"/>
		</defs>
		<clipPath id="SVGID_16_">
			<use xlink:href="#SVGID_15_"  style="overflow:visible;"/>
		</clipPath>
		<path class="st7" d="M145.3,44h-12.7c0,0,6-20.7,7.6-23.5s4.7-2.2,5.1,0C145.6,22.7,145.3,44,145.3,44 M167.5,2.3
			c0-1.2-0.3-2.2-2-2.3H132c-2.8,0.3-7.9,1.9-11.1,7.2c-3.2,5.4-28.8,81-28.8,81c-0.3,0.8,0.2,1.5,1.1,1.5h22.2
			c0.9,0,1.8-0.7,2.1-1.5l7.9-23.7c0.3-0.8,1.2-1.5,2.1-1.5h17.6c0.9,0,1.6,0.7,1.6,1.6l0.6,23.5c0,0.9,0.7,1.6,1.6,1.6h19.7
			c0.9,0,1.6-0.7,1.5-1.6L167.5,2.3z"/>
	</g>
	<g>
		<defs>
			<rect id="SVGID_17_" x="-198.9" y="-234" width="841.9" height="595.3"/>
		</defs>
		<clipPath id="SVGID_18_">
			<use xlink:href="#SVGID_17_"  style="overflow:visible;"/>
		</clipPath>
		<path class="st8" d="M102.7,130.7l-1.1-3.4c0-0.1-0.1-0.1-0.1-0.1h-8.1c-0.1,0-0.1,0-0.1,0.1l-1.1,3.4c-0.1,0.1-0.2,0.2-0.3,0.2
			h-1.5c-0.2,0-0.3-0.1-0.2-0.3l6-18.4c0.1-0.1,0.2-0.2,0.3-0.2h1.8c0.2,0,0.3,0.1,0.3,0.2l6,18.4v0.1c0,0.1-0.1,0.2-0.2,0.2h-1.5
			C102.9,130.9,102.8,130.8,102.7,130.7 M93.9,125.6C93.9,125.6,94,125.6,93.9,125.6h7.1h0.1v-0.1l-3.5-11c0,0,0-0.1-0.1-0.1
			c0,0-0.1,0-0.1,0.1L93.9,125.6C93.9,125.5,93.9,125.6,93.9,125.6"/>
	</g>
	<g>
		<defs>
			<rect id="SVGID_19_" x="-198.9" y="-234" width="841.9" height="595.3"/>
		</defs>
		<clipPath id="SVGID_20_">
			<use xlink:href="#SVGID_19_"  style="overflow:visible;"/>
		</clipPath>
		<path class="st9" d="M122.7,130.6l-3.4-7.5c0-0.1-0.1-0.1-0.2-0.1h-2.5c-0.1,0-0.1,0-0.1,0.1v7.4c0,0.1,0,0.2-0.1,0.2
			c-0.1,0.1-0.1,0.1-0.2,0.1h-3.1c-0.1,0-0.2,0-0.2-0.1c-0.1-0.1-0.1-0.1-0.1-0.2v-18.2c0-0.1,0-0.2,0.1-0.2
			c0.1-0.1,0.1-0.1,0.2-0.1h7.7c1.2,0,2.2,0.2,3,0.7c0.9,0.5,1.5,1.1,2,2s0.7,1.9,0.7,3c0,1.2-0.3,2.3-0.9,3.1
			c-0.6,0.9-1.5,1.5-2.6,1.8c-0.1,0-0.1,0.1-0.1,0.2l3.7,7.6c0,0.1,0.1,0.1,0.1,0.2c0,0.1-0.1,0.2-0.3,0.2h-3.3
			C122.9,130.9,122.8,130.8,122.7,130.6 M116.5,115.4v4.6c0,0.1,0,0.1,0.1,0.1h3.5c0.8,0,1.4-0.2,1.8-0.7c0.5-0.4,0.7-1,0.7-1.8
			c0-0.7-0.2-1.3-0.7-1.8s-1.1-0.7-1.8-0.7h-3.5C116.6,115.3,116.5,115.3,116.5,115.4"/>
	</g>
	<g>
		<defs>
			<rect id="SVGID_21_" x="-198.9" y="-234" width="841.9" height="595.3"/>
		</defs>
		<clipPath id="SVGID_22_">
			<use xlink:href="#SVGID_21_"  style="overflow:visible;"/>
		</clipPath>
		<path class="st10" d="M132.3,130.3c-1.1-0.6-1.9-1.4-2.5-2.4s-0.9-2.2-0.9-3.6v-5.8c0-1.3,0.3-2.5,0.9-3.5c0.6-1,1.4-1.8,2.5-2.4
			s2.3-0.8,3.7-0.8s2.7,0.3,3.7,0.8c1.1,0.6,1.9,1.4,2.5,2.4s0.9,2.2,0.9,3.5v5.8c0,1.4-0.3,2.5-0.9,3.6c-0.6,1-1.4,1.9-2.5,2.4
			c-1.1,0.6-2.3,0.9-3.7,0.9S133.4,130.9,132.3,130.3 M138.4,127c0.6-0.6,0.9-1.5,0.9-2.5v-6c0-1-0.3-1.9-0.9-2.5
			c-0.6-0.6-1.4-1-2.4-1s-1.8,0.3-2.4,1c-0.6,0.6-0.9,1.5-0.9,2.5v5.9c0,1,0.3,1.9,0.9,2.5c0.6,0.6,1.4,0.9,2.4,0.9
			S137.8,127.6,138.4,127"/>
	</g>
	<g>
		<defs>
			<rect id="SVGID_23_" x="-198.9" y="-234" width="841.9" height="595.3"/>
		</defs>
		<clipPath id="SVGID_24_">
			<use xlink:href="#SVGID_23_"  style="overflow:visible;"/>
		</clipPath>
		<path class="st11" d="M149,130.3c-1.1-0.5-1.9-1.3-2.5-2.3s-0.9-2.1-0.9-3.4v-6.2c0-1.3,0.3-2.4,0.9-3.4c0.6-1,1.4-1.8,2.5-2.3
			s2.3-0.8,3.7-0.8s2.6,0.3,3.7,0.8c1.1,0.5,1.9,1.2,2.5,2.2c0.6,0.9,0.9,2,0.9,3.3c0,0.2-0.1,0.3-0.3,0.3l-3.2,0.2h-0.1
			c-0.2,0-0.3-0.1-0.3-0.3c0-1-0.3-1.7-0.9-2.3c-0.6-0.6-1.4-0.9-2.3-0.9c-1,0-1.8,0.3-2.3,0.9c-0.6,0.6-0.9,1.3-0.9,2.3v6.5
			c0,0.9,0.3,1.7,0.9,2.3c0.6,0.6,1.4,0.9,2.3,0.9c1,0,1.7-0.3,2.3-0.9c0.6-0.6,0.9-1.3,0.9-2.3c0-0.2,0.1-0.3,0.3-0.3l3.2,0.1
			c0.1,0,0.2,0,0.2,0.1c0.1,0.1,0.1,0.1,0.1,0.2c0,1.2-0.3,2.3-0.9,3.3c-0.6,1-1.4,1.7-2.5,2.2s-2.3,0.8-3.7,0.8
			C151.3,131.1,150.1,130.8,149,130.3"/>
	</g>
	<g>
		<defs>
			<rect id="SVGID_25_" x="-198.9" y="-234" width="841.9" height="595.3"/>
		</defs>
		<clipPath id="SVGID_26_">
			<use xlink:href="#SVGID_25_"  style="overflow:visible;"/>
		</clipPath>
		<path class="st12" d="M162.6,130.8c-0.1-0.1-0.1-0.1-0.1-0.2v-18.2c0-0.1,0-0.2,0.1-0.2c0.1-0.1,0.1-0.1,0.2-0.1h3.2
			c0.1,0,0.2,0,0.2,0.1c0.1,0.1,0.1,0.1,0.1,0.2v7.6c0,0.1,0,0.1,0.1,0.1h0.1l6.2-7.7c0.1-0.1,0.2-0.2,0.4-0.2h3.6
			c0.1,0,0.2,0,0.3,0.1c0,0.1,0,0.2-0.1,0.3l-6,7.7c-0.1,0.1-0.1,0.1,0,0.2l6.4,10.2c0,0.1,0.1,0.2,0.1,0.2c0,0.1-0.1,0.2-0.3,0.2
			h-3.6c-0.2,0-0.3-0.1-0.4-0.2l-4.8-7.8c0,0,0-0.1-0.1-0.1c0,0-0.1,0-0.1,0.1l-1.7,2.1c0,0.1-0.1,0.1-0.1,0.2v5.4
			c0,0.1,0,0.2-0.1,0.2c-0.1,0.1-0.1,0.1-0.2,0.1h-3.2C162.7,130.9,162.6,130.9,162.6,130.8"/>
	</g>
	<g>
		<defs>
			<rect id="SVGID_27_" x="-198.9" y="-234" width="841.9" height="595.3"/>
		</defs>
		<clipPath id="SVGID_28_">
			<use xlink:href="#SVGID_27_"  style="overflow:visible;"/>
		</clipPath>
		<path class="st13" d="M183.2,130.6l-4.8-18.3v-0.1c0-0.2,0.1-0.2,0.3-0.2h3.3c0.2,0,0.3,0.1,0.4,0.3l2.6,11c0,0.1,0,0.1,0.1,0.1
			c0,0,0.1,0,0.1-0.1l2.5-11c0.1-0.2,0.2-0.3,0.4-0.3h3.3c0.2,0,0.3,0.1,0.4,0.3l2.7,11c0,0.1,0,0.1,0.1,0.1c0,0,0.1,0,0.1-0.1
			l2.5-11c0.1-0.2,0.2-0.3,0.4-0.3h3.2c0.3,0,0.4,0.1,0.3,0.4l-4.4,18.3c-0.1,0.2-0.2,0.3-0.4,0.3h-3.2c-0.2,0-0.3-0.1-0.4-0.3
			l-2.8-11.7c0-0.1,0-0.1-0.1-0.1c0,0-0.1,0-0.1,0.1l-2.6,11.7c0,0.2-0.2,0.3-0.4,0.3h-3C183.4,130.9,183.2,130.8,183.2,130.6"/>
	</g>
	<g>
		<defs>
			<rect id="SVGID_29_" x="-198.9" y="-234" width="841.9" height="595.3"/>
		</defs>
		<clipPath id="SVGID_30_">
			<use xlink:href="#SVGID_29_"  style="overflow:visible;"/>
		</clipPath>
		<path class="st14" d="M215.9,115.2c-0.1,0.1-0.1,0.1-0.2,0.1h-8.9c-0.1,0-0.1,0-0.1,0.1v4.2c0,0.1,0,0.1,0.1,0.1h5.8
			c0.1,0,0.2,0,0.2,0.1c0.1,0.1,0.1,0.1,0.1,0.2v2.6c0,0.1,0,0.2-0.1,0.2s-0.1,0.1-0.2,0.1h-5.8c-0.1,0-0.1,0-0.1,0.1v4.4
			c0,0.1,0,0.1,0.1,0.1h8.9c0.1,0,0.2,0,0.2,0.1c0.1,0.1,0.1,0.1,0.1,0.2v2.6c0,0.1,0,0.2-0.1,0.2c-0.1,0.1-0.1,0.1-0.2,0.1h-12.5
			c-0.1,0-0.2,0-0.2-0.1c-0.1-0.1-0.1-0.1-0.1-0.2v-18.2c0-0.1,0-0.2,0.1-0.2c0.1-0.1,0.1-0.1,0.2-0.1h12.5c0.1,0,0.2,0,0.2,0.1
			c0.1,0.1,0.1,0.1,0.1,0.2v2.6C216,115,216,115.1,215.9,115.2"/>
	</g>
	<g>
		<defs>
			<rect id="SVGID_31_" x="-198.9" y="-234" width="841.9" height="595.3"/>
		</defs>
		<clipPath id="SVGID_32_">
			<use xlink:href="#SVGID_31_"  style="overflow:visible;"/>
		</clipPath>
		<path class="st15" d="M218.7,130.8c-0.1-0.1-0.1-0.1-0.1-0.2v-18.2c0-0.1,0-0.2,0.1-0.2c0.1-0.1,0.1-0.1,0.2-0.1h3.2
			c0.1,0,0.2,0,0.2,0.1c0.1,0.1,0.1,0.1,0.1,0.2v15.1c0,0.1,0,0.1,0.1,0.1h8.8c0.1,0,0.2,0,0.2,0.1c0.1,0.1,0.1,0.1,0.1,0.2v2.6
			c0,0.1,0,0.2-0.1,0.2c-0.1,0.1-0.1,0.1-0.2,0.1h-12.4C218.9,130.9,218.8,130.9,218.7,130.8"/>
	</g>
	<g>
		<defs>
			<rect id="SVGID_33_" x="-198.9" y="-234" width="841.9" height="595.3"/>
		</defs>
		<clipPath id="SVGID_34_">
			<use xlink:href="#SVGID_33_"  style="overflow:visible;"/>
		</clipPath>
		<path class="st16" d="M234.2,130.8c-0.1-0.1-0.1-0.1-0.1-0.2v-18.2c0-0.1,0-0.2,0.1-0.2c0.1-0.1,0.1-0.1,0.2-0.1h3.2
			c0.1,0,0.2,0,0.2,0.1c0.1,0.1,0.1,0.1,0.1,0.2v15.1c0,0.1,0,0.1,0.1,0.1h8.8c0.1,0,0.2,0,0.2,0.1c0.1,0.1,0.1,0.1,0.1,0.2v2.6
			c0,0.1,0,0.2-0.1,0.2c-0.1,0.1-0.1,0.1-0.2,0.1h-12.4C234.3,130.9,234.2,130.9,234.2,130.8"/>
	</g>
	<g>
		<defs>
			<rect id="SVGID_35_" x="-198.9" y="-234" width="841.9" height="595.3"/>
		</defs>
		<clipPath id="SVGID_36_">
			<use xlink:href="#SVGID_35_"  style="overflow:visible;"/>
		</clipPath>
		<path class="st17" d="M266.6,130.6l-0.8-2.6c0-0.1-0.1-0.1-0.1-0.1h-6.6c-0.1,0-0.1,0-0.1,0.1l-0.8,2.6c-0.1,0.2-0.2,0.3-0.4,0.3
			h-3.4c-0.1,0-0.2,0-0.2-0.1c-0.1-0.1-0.1-0.2,0-0.3l5.8-18.2c0.1-0.2,0.2-0.3,0.4-0.3h4.2c0.2,0,0.3,0.1,0.4,0.3l5.8,18.2v0.1
			c0,0.2-0.1,0.2-0.3,0.2h-3.4C266.8,130.9,266.6,130.8,266.6,130.6 M260,124.9h4.8c0.1,0,0.1-0.1,0.1-0.2l-2.4-8
			c0-0.1,0-0.1-0.1-0.1c0,0-0.1,0-0.1,0.1l-2.4,8C259.8,124.9,259.9,124.9,260,124.9"/>
	</g>
	<g>
		<defs>
			<rect id="SVGID_37_" x="-198.9" y="-234" width="841.9" height="595.3"/>
		</defs>
		<clipPath id="SVGID_38_">
			<use xlink:href="#SVGID_37_"  style="overflow:visible;"/>
		</clipPath>
		<path class="st18" d="M275.9,130.3c-1.1-0.5-1.9-1.3-2.5-2.3s-0.9-2.1-0.9-3.4v-12.3c0-0.1,0-0.2,0.1-0.2c0.1-0.1,0.1-0.1,0.2-0.1
			h3.2c0.1,0,0.2,0,0.2,0.1c0.1,0.1,0.1,0.1,0.1,0.2v12.3c0,1,0.3,1.7,0.9,2.3s1.4,0.9,2.3,0.9c1,0,1.7-0.3,2.3-0.9
			c0.6-0.6,0.9-1.4,0.9-2.3v-12.3c0-0.1,0-0.2,0.1-0.2c0.1-0.1,0.1-0.1,0.2-0.1h3.2c0.1,0,0.2,0,0.2,0.1c0.1,0.1,0.1,0.1,0.1,0.2
			v12.3c0,1.3-0.3,2.4-0.9,3.4s-1.4,1.7-2.5,2.3c-1.1,0.5-2.3,0.8-3.7,0.8C278.1,131.1,276.9,130.8,275.9,130.3"/>
	</g>
	<g>
		<defs>
			<rect id="SVGID_39_" x="-198.9" y="-234" width="841.9" height="595.3"/>
		</defs>
		<clipPath id="SVGID_40_">
			<use xlink:href="#SVGID_39_"  style="overflow:visible;"/>
		</clipPath>
		<path class="st19" d="M302.9,112.1c0.1,0.1,0.1,0.1,0.1,0.2v2.6c0,0.1,0,0.2-0.1,0.2c-0.1,0.1-0.1,0.1-0.2,0.1h-4.8
			c-0.1,0-0.1,0-0.1,0.1v15.1c0,0.1,0,0.2-0.1,0.2c-0.1,0.1-0.1,0.1-0.2,0.1h-3.2c-0.1,0-0.2,0-0.2-0.1c-0.1-0.1-0.1-0.1-0.1-0.2
			v-15.1c0-0.1,0-0.1-0.1-0.1h-4.8c-0.1,0-0.2,0-0.2-0.1c-0.1-0.1-0.1-0.1-0.1-0.2v-2.6c0-0.1,0-0.2,0.1-0.2
			c0.1-0.1,0.1-0.1,0.2-0.1h13.6C302.8,112,302.8,112,302.9,112.1"/>
	</g>
	<g>
		<defs>
			<rect id="SVGID_41_" x="-198.9" y="-234" width="841.9" height="595.3"/>
		</defs>
		<clipPath id="SVGID_42_">
			<use xlink:href="#SVGID_41_"  style="overflow:visible;"/>
		</clipPath>
		<path class="st20" d="M307.7,130.3c-1.1-0.6-1.9-1.4-2.5-2.4s-0.9-2.2-0.9-3.6v-5.8c0-1.3,0.3-2.5,0.9-3.5s1.4-1.8,2.5-2.4
			s2.3-0.8,3.7-0.8c1.4,0,2.7,0.3,3.7,0.8c1.1,0.6,1.9,1.4,2.5,2.4s0.9,2.2,0.9,3.5v5.8c0,1.4-0.3,2.5-0.9,3.6
			c-0.6,1-1.4,1.9-2.5,2.4c-1.1,0.6-2.3,0.9-3.7,0.9S308.8,130.9,307.7,130.3 M313.8,127c0.6-0.6,0.9-1.5,0.9-2.5v-6
			c0-1-0.3-1.9-0.9-2.5s-1.4-1-2.4-1s-1.8,0.3-2.4,1c-0.6,0.6-0.9,1.5-0.9,2.5v5.9c0,1,0.3,1.9,0.9,2.5s1.4,0.9,2.4,0.9
			C312.4,127.9,313.2,127.6,313.8,127"/>
	</g>
	<g>
		<defs>
			<rect id="SVGID_43_" x="-198.9" y="-234" width="841.9" height="595.3"/>
		</defs>
		<clipPath id="SVGID_44_">
			<use xlink:href="#SVGID_43_"  style="overflow:visible;"/>
		</clipPath>
		<path class="st21" d="M334,112h3.2c0.1,0,0.2,0,0.2,0.1c0.1,0.1,0.1,0.1,0.1,0.2v18.2c0,0.1,0,0.2-0.1,0.2
			c-0.1,0.1-0.1,0.1-0.2,0.1H334c-0.1,0-0.2,0-0.2-0.1c-0.1-0.1-0.1-0.1-0.1-0.2v-11.9c0-0.1,0-0.1-0.1-0.1c0,0-0.1,0-0.1,0.1
			l-2.9,4.5c-0.1,0.1-0.2,0.2-0.4,0.2h-1.6c-0.2,0-0.3-0.1-0.4-0.2l-2.9-4.5c0-0.1-0.1-0.1-0.1-0.1l-0.1,0.1v11.9
			c0,0.1,0,0.2-0.1,0.2c-0.1,0.1-0.1,0.1-0.2,0.1h-3.2c-0.1,0-0.2,0-0.2-0.1c-0.1-0.1-0.1-0.1-0.1-0.2v-18.2c0-0.1,0-0.2,0.1-0.2
			c0.1-0.1,0.1-0.1,0.2-0.1h3.2c0.2,0,0.3,0.1,0.4,0.2l4,6.3c0.1,0.1,0.1,0.1,0.2,0l4.1-6.3C333.7,112.1,333.8,112,334,112"/>
	</g>
	<g>
		<defs>
			<rect id="SVGID_45_" x="-198.9" y="-234" width="841.9" height="595.3"/>
		</defs>
		<clipPath id="SVGID_46_">
			<use xlink:href="#SVGID_45_"  style="overflow:visible;"/>
		</clipPath>
		<path class="st22" d="M352.4,130.6l-0.8-2.6c0-0.1-0.1-0.1-0.1-0.1h-6.6c-0.1,0-0.1,0-0.1,0.1l-0.8,2.6c-0.1,0.2-0.2,0.3-0.4,0.3
			h-3.5c-0.1,0-0.2,0-0.2-0.1c-0.1-0.1-0.1-0.2,0-0.3l5.8-18.2c0.1-0.2,0.2-0.3,0.4-0.3h4.2c0.2,0,0.3,0.1,0.3,0.3l5.8,18.2v0.1
			c0,0.2-0.1,0.2-0.3,0.2h-3.4C352.6,130.9,352.5,130.8,352.4,130.6 M345.8,124.9h4.8c0.1,0,0.1-0.1,0.1-0.2l-2.4-8
			c0-0.1,0-0.1-0.1-0.1c0,0-0.1,0-0.1,0.1l-2.4,8C345.6,124.9,345.7,124.9,345.8,124.9"/>
	</g>
	<g>
		<defs>
			<rect id="SVGID_47_" x="-198.9" y="-234" width="841.9" height="595.3"/>
		</defs>
		<clipPath id="SVGID_48_">
			<use xlink:href="#SVGID_47_"  style="overflow:visible;"/>
		</clipPath>
		<path class="st23" d="M369.8,112.1c0.1,0.1,0.1,0.1,0.1,0.2v2.6c0,0.1,0,0.2-0.1,0.2c-0.1,0.1-0.1,0.1-0.2,0.1h-4.8
			c-0.1,0-0.1,0-0.1,0.1v15.1c0,0.1,0,0.2-0.1,0.2c-0.1,0.1-0.1,0.1-0.2,0.1h-3.3c-0.1,0-0.2,0-0.2-0.1c-0.1-0.1-0.1-0.1-0.1-0.2
			v-15.1c0-0.1,0-0.1-0.1-0.1H356c-0.1,0-0.2,0-0.2-0.1c-0.1-0.1-0.1-0.1-0.1-0.2v-2.6c0-0.1,0-0.2,0.1-0.2c0.1-0.1,0.1-0.1,0.2-0.1
			h13.6C369.7,112,369.7,112,369.8,112.1"/>
	</g>
	<g>
		<defs>
			<rect id="SVGID_49_" x="-198.9" y="-234" width="841.9" height="595.3"/>
		</defs>
		<clipPath id="SVGID_50_">
			<use xlink:href="#SVGID_49_"  style="overflow:visible;"/>
		</clipPath>
		<path class="st24" d="M372.4,130.8c-0.1-0.1-0.1-0.1-0.1-0.2v-18.2c0-0.1,0-0.2,0.1-0.2c0.1-0.1,0.1-0.1,0.2-0.1h3.2
			c0.1,0,0.2,0,0.2,0.1c0.1,0.1,0.1,0.1,0.1,0.2v18.2c0,0.1,0,0.2-0.1,0.2c-0.1,0.1-0.1,0.1-0.2,0.1h-3.2
			C372.6,130.9,372.5,130.9,372.4,130.8"/>
	</g>
	<g>
		<defs>
			<rect id="SVGID_51_" x="-198.9" y="-234" width="841.9" height="595.3"/>
		</defs>
		<clipPath id="SVGID_52_">
			<use xlink:href="#SVGID_51_"  style="overflow:visible;"/>
		</clipPath>
		<path class="st25" d="M382.4,130.3c-1.1-0.6-1.9-1.4-2.5-2.4s-0.9-2.2-0.9-3.6v-5.8c0-1.3,0.3-2.5,0.9-3.5s1.4-1.8,2.5-2.4
			s2.3-0.8,3.7-0.8c1.4,0,2.7,0.3,3.7,0.8c1.1,0.6,1.9,1.4,2.5,2.4s0.9,2.2,0.9,3.5v5.8c0,1.4-0.3,2.5-0.9,3.6
			c-0.6,1-1.4,1.9-2.5,2.4c-1.1,0.6-2.3,0.9-3.7,0.9C384.7,131.2,383.5,130.9,382.4,130.3 M388.5,127c0.6-0.6,0.9-1.5,0.9-2.5v-6
			c0-1-0.3-1.9-0.9-2.5s-1.4-1-2.4-1s-1.8,0.3-2.4,1c-0.6,0.6-0.9,1.5-0.9,2.5v5.9c0,1,0.3,1.9,0.9,2.5s1.4,0.9,2.4,0.9
			S387.9,127.6,388.5,127"/>
	</g>
	<g>
		<defs>
			<rect id="SVGID_53_" x="-198.9" y="-234" width="841.9" height="595.3"/>
		</defs>
		<clipPath id="SVGID_54_">
			<use xlink:href="#SVGID_53_"  style="overflow:visible;"/>
		</clipPath>
		<path class="st26" d="M407.1,112.1c0.1-0.1,0.1-0.1,0.2-0.1h3.2c0.1,0,0.2,0,0.2,0.1c0.1,0.1,0.1,0.1,0.1,0.2v18.2
			c0,0.1,0,0.2-0.1,0.2c-0.1,0.1-0.1,0.1-0.2,0.1h-3.1c-0.2,0-0.3-0.1-0.4-0.2l-7-11.6c0-0.1-0.1-0.1-0.1-0.1s-0.1,0-0.1,0.1
			l0.1,11.4c0,0.1,0,0.2-0.1,0.2c-0.1,0.1-0.1,0.1-0.2,0.1h-3.2c-0.1,0-0.2,0-0.2-0.1c-0.1-0.1-0.1-0.1-0.1-0.2v-18.2
			c0-0.1,0-0.2,0.1-0.2c0.1-0.1,0.1-0.1,0.2-0.1h3.1c0.2,0,0.3,0.1,0.4,0.2l7,11.5c0,0.1,0.1,0.1,0.1,0.1s0.1,0,0.1-0.1v-11.3
			C407,112.2,407.1,112.2,407.1,112.1"/>
	</g>
	<g>
		<defs>
			<rect id="SVGID_55_" x="-198.9" y="-234" width="841.9" height="595.3"/>
		</defs>
		<clipPath id="SVGID_56_">
			<use xlink:href="#SVGID_55_"  style="overflow:visible;"/>
		</clipPath>
		<path class="st27" d="M422.8,130.4c-1-0.5-1.7-1.2-2.2-2.1s-0.8-2-0.8-3.1v-7.4c0-1.2,0.3-2.2,0.8-3.1s1.3-1.6,2.2-2.1
			c1-0.5,2.1-0.7,3.3-0.7c1.3,0,2.4,0.2,3.3,0.7c1,0.5,1.7,1.2,2.2,2.1s0.8,1.9,0.8,3.1c0,0.1,0,0.2-0.1,0.2s-0.1,0.1-0.2,0.1
			l-1.4,0.1c-0.2,0-0.3-0.1-0.3-0.2v-0.1c0-1.3-0.4-2.3-1.2-3.1c-0.8-0.8-1.9-1.1-3.2-1.1c-1.3,0-2.4,0.4-3.2,1.2
			c-0.8,0.8-1.2,1.8-1.2,3v7.6c0,1.3,0.4,2.3,1.2,3.1c0.8,0.8,1.9,1.2,3.2,1.2c1.3,0,2.4-0.4,3.2-1.1c0.8-0.8,1.2-1.8,1.2-3.1v-0.1
			c0-0.2,0.1-0.2,0.3-0.2l1.4,0.1c0.2,0,0.3,0.1,0.3,0.2c0,1.2-0.3,2.2-0.8,3.1c-0.5,0.9-1.3,1.6-2.2,2.1c-1,0.5-2.1,0.7-3.3,0.7
			C424.9,131.1,423.8,130.9,422.8,130.4"/>
	</g>
	<g>
		<defs>
			<rect id="SVGID_57_" x="-198.9" y="-234" width="841.9" height="595.3"/>
		</defs>
		<clipPath id="SVGID_58_">
			<use xlink:href="#SVGID_57_"  style="overflow:visible;"/>
		</clipPath>
		<path class="st28" d="M439.3,130.3c-1-0.5-1.7-1.3-2.3-2.2c-0.5-0.9-0.8-2-0.8-3.3V118c0-1.2,0.3-2.3,0.8-3.3
			c0.5-0.9,1.3-1.7,2.3-2.2s2.1-0.8,3.4-0.8s2.4,0.3,3.4,0.8s1.7,1.3,2.3,2.2c0.5,0.9,0.8,2,0.8,3.3v6.8c0,1.2-0.3,2.3-0.8,3.3
			c-0.5,0.9-1.3,1.7-2.3,2.2s-2.1,0.8-3.4,0.8C441.4,131.1,440.2,130.8,439.3,130.3 M445.9,128.2c0.8-0.8,1.2-1.9,1.2-3.3V118
			c0-1.4-0.4-2.5-1.2-3.3c-0.8-0.8-1.9-1.3-3.3-1.3s-2.4,0.4-3.3,1.3c-0.8,0.8-1.2,1.9-1.2,3.3v6.9c0,1.4,0.4,2.5,1.2,3.3
			c0.8,0.8,1.9,1.2,3.3,1.2C444,129.5,445.1,129,445.9,128.2"/>
	</g>
	<g>
		<defs>
			<rect id="SVGID_59_" x="-198.9" y="-234" width="841.9" height="595.3"/>
		</defs>
		<clipPath id="SVGID_60_">
			<use xlink:href="#SVGID_59_"  style="overflow:visible;"/>
		</clipPath>
		<path class="st29" d="M466.2,112h1.4c0.2,0,0.3,0.1,0.3,0.3v18.4c0,0.2-0.1,0.3-0.3,0.3h-1.4c-0.2,0-0.3-0.1-0.3-0.3v-15
			c0-0.1,0-0.1-0.1-0.1c0,0-0.1,0-0.1,0.1l-4.4,6.7c-0.1,0.1-0.2,0.2-0.3,0.2h-0.7c-0.1,0-0.2-0.1-0.3-0.2l-4.4-6.7
			c0-0.1,0-0.1-0.1-0.1l-0.1,0.1v14.9c0,0.2-0.1,0.3-0.3,0.3h-1.4c-0.2,0-0.3-0.1-0.3-0.3v-18.4c0-0.2,0.1-0.3,0.3-0.3h1.4
			c0.1,0,0.3,0.1,0.3,0.2l5.1,7.7c0,0,0,0,0.1,0h0.1l5-7.7C465.9,112.1,466,112,466.2,112"/>
	</g>
	<g>
		<defs>
			<rect id="SVGID_61_" x="-198.9" y="-234" width="841.9" height="595.3"/>
		</defs>
		<clipPath id="SVGID_62_">
			<use xlink:href="#SVGID_61_"  style="overflow:visible;"/>
		</clipPath>
		<path class="st30" d="M483.9,113.4c1,1,1.4,2.2,1.4,3.8c0,1.6-0.5,2.8-1.5,3.8s-2.3,1.4-3.9,1.4h-5.3c-0.1,0-0.1,0-0.1,0.1v8
			c0,0.2-0.1,0.3-0.3,0.3h-1.4c-0.2,0-0.3-0.1-0.3-0.3v-18.4c0-0.2,0.1-0.3,0.3-0.3h7.1C481.7,112,482.9,112.5,483.9,113.4
			 M482.4,119.9c0.7-0.7,1-1.5,1-2.6s-0.3-2-1-2.6c-0.7-0.7-1.5-1-2.6-1h-5.1c-0.1,0-0.1,0-0.1,0.1v7c0,0.1,0,0.1,0.1,0.1h5.1
			C480.9,120.9,481.8,120.5,482.4,119.9"/>
	</g>
	<g>
		<defs>
			<rect id="SVGID_63_" x="-198.9" y="-234" width="841.9" height="595.3"/>
		</defs>
		<clipPath id="SVGID_64_">
			<use xlink:href="#SVGID_63_"  style="overflow:visible;"/>
		</clipPath>
		<path class="st31" d="M499.1,130.7l-1.1-3.4c0-0.1-0.1-0.1-0.1-0.1h-8.1c-0.1,0-0.1,0-0.1,0.1l-1.1,3.4c-0.1,0.1-0.2,0.2-0.3,0.2
			h-1.5c-0.2,0-0.3-0.1-0.2-0.3l6-18.4c0.1-0.1,0.2-0.2,0.3-0.2h1.8c0.2,0,0.3,0.1,0.3,0.2l6,18.4v0.1c0,0.1-0.1,0.2-0.2,0.2h-1.5
			C499.3,130.9,499.2,130.8,499.1,130.7 M490.3,125.6C490.3,125.6,490.4,125.6,490.3,125.6h7.1h0.1v-0.1l-3.5-11c0,0,0-0.1-0.1-0.1
			s-0.1,0-0.1,0.1L490.3,125.6C490.3,125.5,490.3,125.6,490.3,125.6"/>
	</g>
	<g>
		<defs>
			<rect id="SVGID_65_" x="-198.9" y="-234" width="841.9" height="595.3"/>
		</defs>
		<clipPath id="SVGID_66_">
			<use xlink:href="#SVGID_65_"  style="overflow:visible;"/>
		</clipPath>
		<path class="st32" d="M516.2,112h1.4c0.2,0,0.3,0.1,0.3,0.3v18.4c0,0.2-0.1,0.3-0.3,0.3h-1.4c-0.1,0-0.2-0.1-0.3-0.2l-9.2-15
			c0-0.1,0-0.1-0.1-0.1c0,0-0.1,0-0.1,0.1v14.9c0,0.2-0.1,0.3-0.3,0.3h-1.4c-0.2,0-0.3-0.1-0.3-0.3v-18.4c0-0.2,0.1-0.3,0.3-0.3h1.4
			c0.1,0,0.2,0.1,0.3,0.2l9.2,15c0,0.1,0,0.1,0.1,0.1c0,0,0.1,0,0.1-0.1v-14.9C515.9,112.1,516,112,516.2,112"/>
	</g>
	<g>
		<defs>
			<rect id="SVGID_67_" x="-198.9" y="-234" width="841.9" height="595.3"/>
		</defs>
		<clipPath id="SVGID_68_">
			<use xlink:href="#SVGID_67_"  style="overflow:visible;"/>
		</clipPath>
		<path class="st33" d="M527,130.6v-8c0-0.1,0-0.1,0-0.1l-5.6-10.1c0-0.1-0.1-0.1-0.1-0.2s0.1-0.2,0.2-0.2h1.5
			c0.2,0,0.3,0.1,0.3,0.2l4.5,8.2c0,0,0,0,0.1,0s0.1,0,0.1,0l4.6-8.2c0.1-0.1,0.2-0.2,0.3-0.2h1.5c0.1,0,0.2,0,0.2,0.1s0,0.1,0,0.2
			l-5.6,10.1v0.1v8c0,0.2-0.1,0.3-0.3,0.3h-1.4C527.1,130.9,527,130.8,527,130.6"/>
	</g>
</g>
</svg>
